<svg id="Capa_1" enable-background="new 0 0 511.914 511.914" height="512" viewBox="0 0 511.914 511.914" width="512" xmlns="http://www.w3.org/2000/svg"><g><path d="m316.914 0c-107.523 0-195 87.477-195 195 0 48.374 17.713 92.685 46.984 126.804l-18.404 18.404-21.213-21.213-129.281 129.278 63.64 63.64 129.279-129.28-21.213-21.213 18.404-18.404c34.119 29.272 78.429 46.984 126.804 46.984 107.523 0 195-87.477 195-195s-87.477-195-195-195zm-253.274 469.487-21.213-21.213 86.853-86.853 21.213 21.213zm253.274-109.487c-90.981 0-165-74.019-165-165s74.019-165 165-165 165 74.019 165 165-74.019 165-165 165z"/><path d="m278.025 140.244 60 30 79.495-79.496-21.213-21.213-64.206 64.206-60-30-55.794 55.794 21.213 21.213z"/><path d="m283.952 176.749-72.038 72.038v51.213h210v-171.213l-77.962 77.962zm17.962 42.522 30 15v35.729h-30zm-60 41.942 30-30v38.787h-30zm150 8.787h-30v-38.787l30-30z"/></g></svg>