<?xml version="1.0"?>
<svg xmlns="http://www.w3.org/2000/svg" id="Layer_1" data-name="Layer 1" viewBox="0 0 128 128" width="512" height="512"><title>RESIDENTIIAL</title><path d="M112.5,103.309h-5.375V97.616a1.75,1.75,0,0,0-1.75-1.75H102V48a1.749,1.749,0,0,0-1.021-1.591L71.818,33.057V15.5a1.75,1.75,0,0,0-1.75-1.75H27.754A1.75,1.75,0,0,0,26,15.5V95.866H22.625a1.75,1.75,0,0,0-1.75,1.75v5.692H15.5a1.75,1.75,0,0,0-1.75,1.75V112.5a1.75,1.75,0,0,0,1.75,1.75h97a1.75,1.75,0,0,0,1.75-1.75v-7.441A1.75,1.75,0,0,0,112.5,103.309Zm-14-24.9H82.937V74.25H98.5Zm0-16H82.937V58.25H98.5Zm0-13.286V54.75H81.187a1.75,1.75,0,0,0-1.75,1.75v7.659a1.75,1.75,0,0,0,1.75,1.75H98.5V70.75H81.187a1.75,1.75,0,0,0-1.75,1.75v7.659a1.75,1.75,0,0,0,1.75,1.75H98.5V95.866H71.818V36.906ZM29.5,17.25H68.318V95.866H29.5ZM24.375,99.366h79.25v3.942H24.375ZM110.75,110.75H17.25v-3.941h93.5Z"/><path d="M61.833,22.75H36.25A1.75,1.75,0,0,0,34.5,24.5v7.659a1.75,1.75,0,0,0,1.75,1.75H61.833a1.75,1.75,0,0,0,1.75-1.75V24.5A1.75,1.75,0,0,0,61.833,22.75Zm-1.75,7.659H38V26.25H60.083Z"/><path d="M36.25,49.909h7.659a1.75,1.75,0,0,0,1.75-1.75V40.5a1.75,1.75,0,0,0-1.75-1.75H36.25A1.75,1.75,0,0,0,34.5,40.5v7.659A1.75,1.75,0,0,0,36.25,49.909ZM38,42.25h4.159v4.159H38Z"/><path d="M61.833,38.75H54.174a1.75,1.75,0,0,0-1.75,1.75v7.659a1.75,1.75,0,0,0,1.75,1.75h7.659a1.75,1.75,0,0,0,1.75-1.75V40.5A1.75,1.75,0,0,0,61.833,38.75Zm-1.75,7.659H55.924V42.25h4.159Z"/><path d="M61.833,54.75H36.25A1.75,1.75,0,0,0,34.5,56.5v7.659a1.75,1.75,0,0,0,1.75,1.75H61.833a1.75,1.75,0,0,0,1.75-1.75V56.5A1.75,1.75,0,0,0,61.833,54.75Zm-1.75,7.659H38V58.25H60.083Z"/><path d="M43.909,70.75H36.25A1.75,1.75,0,0,0,34.5,72.5v7.659a1.75,1.75,0,0,0,1.75,1.75h7.659a1.75,1.75,0,0,0,1.75-1.75V72.5A1.75,1.75,0,0,0,43.909,70.75Zm-1.75,7.659H38V74.25h4.159Z"/><path d="M61.833,70.75H54.174a1.75,1.75,0,0,0-1.75,1.75v7.659a1.75,1.75,0,0,0,1.75,1.75h7.659a1.75,1.75,0,0,0,1.75-1.75V72.5A1.75,1.75,0,0,0,61.833,70.75Zm-1.75,7.659H55.924V74.25h4.159Z"/></svg>
