<svg height="512" viewBox="0 0 512 512" width="512" xmlns="http://www.w3.org/2000/svg"><g id="outline"><path d="m136 72a8.009 8.009 0 0 1 8 8h16a24.039 24.039 0 0 0 -16-22.624v-9.376h-16v9.376a24 24 0 0 0 8 46.624 8 8 0 1 1 -8 8h-16a24.039 24.039 0 0 0 16 22.624v9.376h16v-9.376a24 24 0 0 0 -8-46.624 8 8 0 0 1 0-16z"/><path d="m176 72h72v16h-72z"/><path d="m176 104h128v16h-128z"/><path d="m104 256a56 56 0 1 0 56 56 56.063 56.063 0 0 0 -56-56zm39.2 48h-31.2v-31.195a40.119 40.119 0 0 1 31.2 31.195zm-79.2 8a40.067 40.067 0 0 1 32-39.195v35.882l-25.356 25.355a39.756 39.756 0 0 1 -6.644-22.042zm40 40a39.756 39.756 0 0 1 -22.042-6.644l25.356-25.356h35.886a40.068 40.068 0 0 1 -39.2 32z"/><path d="m488 208h-152v-128a8 8 0 0 0 -2.343-5.657l-56-56a8 8 0 0 0 -5.657-2.343h-248a8 8 0 0 0 -8 8v368a8 8 0 0 0 8 8h248v88a8 8 0 0 0 8 8h208a8 8 0 0 0 8-8v-272a8 8 0 0 0 -8-8zm-208-164.686 28.686 28.686h-28.686zm-8 172.686v168h-240v-352h232v48a8 8 0 0 0 8 8h48v120h-40a8 8 0 0 0 -8 8zm208 264h-192v-256h192z"/><path d="m312 288h144a8 8 0 0 0 8-8v-32a8 8 0 0 0 -8-8h-144a8 8 0 0 0 -8 8v32a8 8 0 0 0 8 8zm8-32h128v16h-128z"/><path d="m312 352h32a8 8 0 0 0 8-8v-32a8 8 0 0 0 -8-8h-32a8 8 0 0 0 -8 8v32a8 8 0 0 0 8 8zm8-32h16v16h-16z"/><path d="m400 304h-32a8 8 0 0 0 -8 8v32a8 8 0 0 0 8 8h32a8 8 0 0 0 8-8v-32a8 8 0 0 0 -8-8zm-8 32h-16v-16h16z"/><path d="m456 304h-32a8 8 0 0 0 -8 8v32a8 8 0 0 0 8 8h32a8 8 0 0 0 8-8v-32a8 8 0 0 0 -8-8zm-8 32h-16v-16h16z"/><path d="m312 408h32a8 8 0 0 0 8-8v-32a8 8 0 0 0 -8-8h-32a8 8 0 0 0 -8 8v32a8 8 0 0 0 8 8zm8-32h16v16h-16z"/><path d="m400 360h-32a8 8 0 0 0 -8 8v32a8 8 0 0 0 8 8h32a8 8 0 0 0 8-8v-32a8 8 0 0 0 -8-8zm-8 32h-16v-16h16z"/><path d="m456 360h-32a8 8 0 0 0 -8 8v32a8 8 0 0 0 8 8h32a8 8 0 0 0 8-8v-32a8 8 0 0 0 -8-8zm-8 32h-16v-16h16z"/><path d="m312 464h32a8 8 0 0 0 8-8v-32a8 8 0 0 0 -8-8h-32a8 8 0 0 0 -8 8v32a8 8 0 0 0 8 8zm8-32h16v16h-16z"/><path d="m400 416h-32a8 8 0 0 0 -8 8v32a8 8 0 0 0 8 8h32a8 8 0 0 0 8-8v-32a8 8 0 0 0 -8-8zm-8 32h-16v-16h16z"/><path d="m456 416h-32a8 8 0 0 0 -8 8v32a8 8 0 0 0 8 8h32a8 8 0 0 0 8-8v-32a8 8 0 0 0 -8-8zm-8 32h-16v-16h16z"/><path d="m152 192h-40v-24a8 8 0 0 0 -8-8h-48a8 8 0 0 0 -8 8v64a8 8 0 0 0 8 8h96a8 8 0 0 0 8-8v-32a8 8 0 0 0 -8-8zm-56-16v16h-32v-16zm48 48h-80v-16h80z"/><path d="m176 272h80v16h-80z"/><path d="m176 304h80v16h-80z"/><path d="m176 336h80v16h-80z"/><path d="m176 176h128v16h-128z"/><path d="m176 208h80v16h-80z"/><path d="m72 120a8.009 8.009 0 0 1 -8-8h-16a24.039 24.039 0 0 0 16 22.624v9.376h16v-9.376a24 24 0 0 0 -8-46.624 8 8 0 1 1 8-8h16a24.039 24.039 0 0 0 -16-22.624v-9.376h-16v9.376a24 24 0 0 0 8 46.624 8 8 0 0 1 0 16z"/></g></svg>