<svg width="43" height="43" viewBox="0 0 43 43" fill="none" xmlns="http://www.w3.org/2000/svg">
<g filter="url(#filter0_d)">
<path d="M38.0376 16.6229C37.9612 16.5246 36.1321 14.1885 33.1699 11.8319C25.2824 5.55655 17.5701 5.30478 9.36599 11.8319C6.40393 14.1885 4.57482 16.5246 4.49844 16.6229C4.16719 17.049 4.16719 17.6872 4.49844 18.1133C4.57482 18.2117 6.40393 20.5477 9.36606 22.9043C17.2536 29.1797 24.9659 29.4315 33.17 22.9043C36.1321 20.5477 37.9612 18.2116 38.0376 18.1133C38.3688 17.6872 38.3688 17.049 38.0376 16.6229ZM28.5104 17.3681C28.5104 21.8627 25.2348 25.4663 21.268 25.4663C17.2947 25.4663 14.0257 21.8552 14.0257 17.3681C14.0257 12.8735 17.3012 9.26998 21.268 9.26998C25.2413 9.26998 28.5104 12.881 28.5104 17.3681ZM6.62622 17.3681C8.59473 15.1422 11.0578 13.0244 13.6345 11.5445C11.5167 15.0221 11.4757 19.6467 13.6345 23.1917C11.0449 21.7045 8.58296 19.5805 6.62622 17.3681ZM28.9014 23.1917C31.0192 19.7141 31.0602 15.0895 28.9014 11.5445C31.491 13.0318 33.953 15.1557 35.9097 17.3681C33.9454 19.5891 31.4833 21.7089 28.9014 23.1917Z" fill="black"/>
<path d="M22.2654 16.2398H22.8495L21.2682 18.0291L19.9773 16.5684C19.5883 16.128 18.9564 16.1277 18.5671 16.5684L16.5899 18.8057C16.2005 19.2464 16.2005 19.9607 16.5899 20.4014C16.9793 20.8421 17.6107 20.842 18.0001 20.4014L19.2722 18.9619L20.5632 20.4225C20.9526 20.8632 21.5839 20.8632 21.9733 20.4225L24.2597 17.8355V18.1203C24.2597 18.7434 24.7061 19.2486 25.2568 19.2486C25.8075 19.2486 26.254 18.7434 26.254 18.1203V15.1115C26.254 14.4883 25.8075 13.9832 25.2568 13.9832H22.2654C21.7147 13.9832 21.2682 14.4883 21.2682 15.1115C21.2682 15.7346 21.7147 16.2398 22.2654 16.2398Z" fill="black"/>
<path d="M21.2679 4.88143C21.8186 4.88143 22.2651 4.37624 22.2651 3.75311V1.49648C22.2651 0.873349 21.8186 0.368164 21.2679 0.368164C20.7172 0.368164 20.2708 0.873349 20.2708 1.49648V3.75311C20.2708 4.37624 20.7172 4.88143 21.2679 4.88143Z" fill="black"/>
<path d="M27.7824 6.85644C28.2573 7.16673 28.868 6.9856 29.1446 6.44348L30.1417 4.48924C30.4171 3.9496 30.2537 3.25945 29.7767 2.94796C29.2998 2.63624 28.6899 2.82114 28.4146 3.36092L27.4175 5.31516C27.1421 5.8548 27.3055 6.54488 27.7824 6.85644Z" fill="black"/>
<path d="M21.2679 29.7792C20.7172 29.7792 20.2708 30.2844 20.2708 30.9075V33.2393C20.2708 33.8625 20.7172 34.3677 21.2679 34.3677C21.8186 34.3677 22.2651 33.8625 22.2651 33.2393V30.9075C22.2651 30.2844 21.8186 29.7792 21.2679 29.7792Z" fill="black"/>
<path d="M29.1114 28.2271C28.8359 27.6874 28.2261 27.5024 27.7492 27.8142C27.2723 28.1257 27.1089 28.8157 27.3843 29.3554L28.4147 31.3749C28.6909 31.9163 29.3013 32.0986 29.7768 31.7879C30.2538 31.4763 30.4172 30.7863 30.1417 30.2466L29.1114 28.2271Z" fill="black"/>
<path d="M13.391 6.44345C13.6672 6.98481 14.2776 7.16715 14.7531 6.85641C15.23 6.54485 15.3934 5.85477 15.118 5.31513L14.1209 3.36089C13.8455 2.8211 13.2357 2.63628 12.7588 2.94793C12.2818 3.25949 12.1184 3.94957 12.3938 4.4892L13.391 6.44345Z" fill="black"/>
<path d="M14.7863 27.8142C14.3094 27.5024 13.6995 27.6875 13.4242 28.2271L12.3938 30.2466C12.1184 30.7863 12.2818 31.4764 12.7588 31.7879C13.2338 32.0983 13.8444 31.9167 14.1209 31.3749L15.1513 29.3554C15.4267 28.8158 15.2633 28.1257 14.7863 27.8142Z" fill="black"/>
</g>
<defs>
<filter id="filter0_d" x="0.25" y="0.368164" width="42.036" height="41.9995" filterUnits="userSpaceOnUse" color-interpolation-filters="sRGB">
<feFlood flood-opacity="0" result="BackgroundImageFix"/>
<feColorMatrix in="SourceAlpha" type="matrix" values="0 0 0 0 0 0 0 0 0 0 0 0 0 0 0 0 0 0 127 0" result="hardAlpha"/>
<feOffset dy="4"/>
<feGaussianBlur stdDeviation="2"/>
<feColorMatrix type="matrix" values="0 0 0 0 0 0 0 0 0 0 0 0 0 0 0 0 0 0 0.25 0"/>
<feBlend mode="normal" in2="BackgroundImageFix" result="effect1_dropShadow"/>
<feBlend mode="normal" in="SourceGraphic" in2="effect1_dropShadow" result="shape"/>
</filter>
</defs>
</svg>
